<!DOCTYPE svg PUBLIC "-//W3C//DTD SVG 1.1//EN" "http://www.w3.org/Graphics/SVG/1.1/DTD/svg11.dtd">
<!-- Uploaded to: SVG Repo, www.svgrepo.com, Transformed by: SVG Repo Mixer Tools -->
<svg width="800px" height="800px" viewBox="0 0 48 48" xmlns="http://www.w3.org/2000/svg" fill="#000000" stroke="#000000">
<g id="SVGRepo_bgCarrier" stroke-width="0"/>
<g id="SVGRepo_tracerCarrier" stroke-linecap="round" stroke-linejoin="round"/>
<g id="SVGRepo_iconCarrier">
<defs>
<style>.a{fill:none;stroke:#ff0040;stroke-linecap:round;stroke-linejoin:round;}</style>
</defs>
<path class="a" d="M8.0988,7.8588A1.9194,1.9194,0,0,0,6.1794,9.7782V41.5807A1.9193,1.9193,0,0,0,8.0988,43.5H39.9012a1.9193,1.9193,0,0,0,1.9194-1.9193V9.7782a1.9194,1.9194,0,0,0-1.9194-1.9194Z"/>
<rect class="a" x="9.068" y="33.5427" width="7.4971" height="7.0782"/>
<rect class="a" x="20.2514" y="33.5427" width="7.4971" height="7.0782"/>
<rect class="a" x="31.4349" y="33.5427" width="7.4971" height="7.0782"/>
<rect class="a" x="9.068" y="23.3351" width="7.4971" height="7.0782"/>
<rect class="a" x="20.2514" y="23.3351" width="7.4971" height="7.0782"/>
<rect class="a" x="31.4349" y="23.3351" width="7.4971" height="7.0782"/>
<rect class="a" x="31.4349" y="13.5974" width="7.4971" height="7.0782"/>
<line class="a" x1="12.8166" y1="10.258" x2="12.8166" y2="4.5"/>
<line class="a" x1="35.1834" y1="10.258" x2="35.1834" y2="4.5"/>
</g>
</svg>